M48
INCH,TZ
T1C0.0157
T2C0.0315
T3C0.0472
%
G90
G05
T1
X28150Y-26417
X31260Y-30000
T2
X32913Y-22283
X33913Y-21283
X34913Y-22283
X27402Y-23189
X27402Y-24189
X27402Y-25189
X27402Y-26189
X27402Y-27189
X27402Y-28189
X27402Y-29189
X27402Y-30189
X27402Y-31189
X27402Y-32189
X27402Y-33189
X27402Y-34189
X27402Y-35189
X27402Y-36189
X27402Y-37189
X27402Y-38189
X35402Y-27189
X35402Y-28189
X35402Y-29189
X35402Y-30189
X35402Y-31189
X35402Y-32189
X35402Y-33189
X35402Y-34189
X35402Y-35189
X35402Y-36189
X35402Y-37189
X35402Y-38189
X28031Y-22244
X29031Y-21244
X30031Y-22244
T3
X33740Y-24055
X33740Y-25433
T0
M30
