%TF.GenerationSoftware,KiCad,Pcbnew,5.1.7-a382d34a8~88~ubuntu18.04.1*%
%TF.CreationDate,2021-01-04T13:18:22+01:00*%
%TF.ProjectId,wearable_biosonification,77656172-6162-46c6-955f-62696f736f6e,rev?*%
%TF.SameCoordinates,Original*%
%TF.FileFunction,Copper,L1,Top*%
%TF.FilePolarity,Positive*%
%FSLAX46Y46*%
G04 Gerber Fmt 4.6, Leading zero omitted, Abs format (unit mm)*
G04 Created by KiCad (PCBNEW 5.1.7-a382d34a8~88~ubuntu18.04.1) date 2021-01-04 13:18:22*
%MOMM*%
%LPD*%
G01*
G04 APERTURE LIST*
%TA.AperFunction,ComponentPad*%
%ADD10C,1.600000*%
%TD*%
%TA.AperFunction,ComponentPad*%
%ADD11R,1.600000X1.600000*%
%TD*%
%TA.AperFunction,ComponentPad*%
%ADD12C,1.440000*%
%TD*%
%TA.AperFunction,ComponentPad*%
%ADD13C,2.400000*%
%TD*%
%TA.AperFunction,ComponentPad*%
%ADD14R,2.400000X2.400000*%
%TD*%
%TA.AperFunction,ViaPad*%
%ADD15C,0.800000*%
%TD*%
%TA.AperFunction,Conductor*%
%ADD16C,0.250000*%
%TD*%
G04 APERTURE END LIST*
D10*
%TO.P,A1,17*%
%TO.N,Net-(A1-Pad17)*%
X89920000Y-97000000D03*
%TO.P,A1,18*%
%TO.N,Net-(A1-Pad18)*%
X89920000Y-94460000D03*
%TO.P,A1,19*%
%TO.N,Net-(A1-Pad19)*%
X89920000Y-91920000D03*
%TO.P,A1,20*%
%TO.N,Net-(A1-Pad20)*%
X89920000Y-89380000D03*
%TO.P,A1,21*%
%TO.N,Net-(A1-Pad21)*%
X89920000Y-86840000D03*
%TO.P,A1,22*%
%TO.N,Net-(A1-Pad22)*%
X89920000Y-84300000D03*
%TO.P,A1,23*%
%TO.N,Net-(A1-Pad23)*%
X89920000Y-81760000D03*
%TO.P,A1,24*%
%TO.N,Net-(A1-Pad24)*%
X89920000Y-79220000D03*
%TO.P,A1,25*%
%TO.N,Net-(A1-Pad25)*%
X89920000Y-76680000D03*
%TO.P,A1,26*%
%TO.N,Net-(A1-Pad26)*%
X89920000Y-74140000D03*
%TO.P,A1,27*%
%TO.N,Net-(A1-Pad27)*%
X89920000Y-71600000D03*
%TO.P,A1,28*%
%TO.N,Net-(A1-Pad28)*%
X89920000Y-69060000D03*
D11*
%TO.P,A1,1*%
%TO.N,Net-(A1-Pad1)*%
X69600000Y-58900000D03*
D10*
%TO.P,A1,2*%
%TO.N,Vfeather*%
X69600000Y-61440000D03*
%TO.P,A1,3*%
%TO.N,Net-(A1-Pad3)*%
X69600000Y-63980000D03*
%TO.P,A1,4*%
%TO.N,AnalogIn*%
X69600000Y-66520000D03*
%TO.P,A1,5*%
X69600000Y-69060000D03*
%TO.P,A1,6*%
%TO.N,Net-(A1-Pad6)*%
X69600000Y-71600000D03*
%TO.P,A1,7*%
%TO.N,Net-(A1-Pad7)*%
X69600000Y-74140000D03*
%TO.P,A1,8*%
%TO.N,Net-(A1-Pad8)*%
X69600000Y-76680000D03*
%TO.P,A1,9*%
%TO.N,Net-(A1-Pad9)*%
X69600000Y-79220000D03*
%TO.P,A1,10*%
%TO.N,Net-(A1-Pad10)*%
X69600000Y-81760000D03*
%TO.P,A1,11*%
%TO.N,Net-(A1-Pad11)*%
X69600000Y-84300000D03*
%TO.P,A1,12*%
%TO.N,Net-(A1-Pad12)*%
X69600000Y-86840000D03*
%TO.P,A1,13*%
%TO.N,Net-(A1-Pad13)*%
X69600000Y-89380000D03*
%TO.P,A1,14*%
%TO.N,Net-(A1-Pad14)*%
X69600000Y-91920000D03*
%TO.P,A1,15*%
%TO.N,Net-(A1-Pad15)*%
X69600000Y-94460000D03*
%TO.P,A1,16*%
%TO.N,Net-(A1-Pad16)*%
X69600000Y-97000000D03*
%TD*%
%TO.P,R8,2*%
%TO.N,Net-(D1-Pad1)*%
%TA.AperFunction,SMDPad,CuDef*%
G36*
G01*
X72750001Y-83400000D02*
X71849999Y-83400000D01*
G75*
G02*
X71600000Y-83150001I0J249999D01*
G01*
X71600000Y-82449999D01*
G75*
G02*
X71849999Y-82200000I249999J0D01*
G01*
X72750001Y-82200000D01*
G75*
G02*
X73000000Y-82449999I0J-249999D01*
G01*
X73000000Y-83150001D01*
G75*
G02*
X72750001Y-83400000I-249999J0D01*
G01*
G37*
%TD.AperFunction*%
%TO.P,R8,1*%
%TO.N,AnalogIn*%
%TA.AperFunction,SMDPad,CuDef*%
G36*
G01*
X72750001Y-85400000D02*
X71849999Y-85400000D01*
G75*
G02*
X71600000Y-85150001I0J249999D01*
G01*
X71600000Y-84449999D01*
G75*
G02*
X71849999Y-84200000I249999J0D01*
G01*
X72750001Y-84200000D01*
G75*
G02*
X73000000Y-84449999I0J-249999D01*
G01*
X73000000Y-85150001D01*
G75*
G02*
X72750001Y-85400000I-249999J0D01*
G01*
G37*
%TD.AperFunction*%
%TD*%
%TO.P,D1,2*%
%TO.N,Vfeather*%
%TA.AperFunction,SMDPad,CuDef*%
G36*
G01*
X72775001Y-78200000D02*
X71874999Y-78200000D01*
G75*
G02*
X71625000Y-77950001I0J249999D01*
G01*
X71625000Y-77299999D01*
G75*
G02*
X71874999Y-77050000I249999J0D01*
G01*
X72775001Y-77050000D01*
G75*
G02*
X73025000Y-77299999I0J-249999D01*
G01*
X73025000Y-77950001D01*
G75*
G02*
X72775001Y-78200000I-249999J0D01*
G01*
G37*
%TD.AperFunction*%
%TO.P,D1,1*%
%TO.N,Net-(D1-Pad1)*%
%TA.AperFunction,SMDPad,CuDef*%
G36*
G01*
X72775001Y-80250000D02*
X71874999Y-80250000D01*
G75*
G02*
X71625000Y-80000001I0J249999D01*
G01*
X71625000Y-79349999D01*
G75*
G02*
X71874999Y-79100000I249999J0D01*
G01*
X72775001Y-79100000D01*
G75*
G02*
X73025000Y-79349999I0J-249999D01*
G01*
X73025000Y-80000001D01*
G75*
G02*
X72775001Y-80250000I-249999J0D01*
G01*
G37*
%TD.AperFunction*%
%TD*%
%TO.P,U1,14*%
%TO.N,N/C*%
%TA.AperFunction,SMDPad,CuDef*%
G36*
G01*
X83010000Y-77650000D02*
X83310000Y-77650000D01*
G75*
G02*
X83460000Y-77800000I0J-150000D01*
G01*
X83460000Y-79450000D01*
G75*
G02*
X83310000Y-79600000I-150000J0D01*
G01*
X83010000Y-79600000D01*
G75*
G02*
X82860000Y-79450000I0J150000D01*
G01*
X82860000Y-77800000D01*
G75*
G02*
X83010000Y-77650000I150000J0D01*
G01*
G37*
%TD.AperFunction*%
%TO.P,U1,13*%
%TA.AperFunction,SMDPad,CuDef*%
G36*
G01*
X81740000Y-77650000D02*
X82040000Y-77650000D01*
G75*
G02*
X82190000Y-77800000I0J-150000D01*
G01*
X82190000Y-79450000D01*
G75*
G02*
X82040000Y-79600000I-150000J0D01*
G01*
X81740000Y-79600000D01*
G75*
G02*
X81590000Y-79450000I0J150000D01*
G01*
X81590000Y-77800000D01*
G75*
G02*
X81740000Y-77650000I150000J0D01*
G01*
G37*
%TD.AperFunction*%
%TO.P,U1,12*%
%TA.AperFunction,SMDPad,CuDef*%
G36*
G01*
X80470000Y-77650000D02*
X80770000Y-77650000D01*
G75*
G02*
X80920000Y-77800000I0J-150000D01*
G01*
X80920000Y-79450000D01*
G75*
G02*
X80770000Y-79600000I-150000J0D01*
G01*
X80470000Y-79600000D01*
G75*
G02*
X80320000Y-79450000I0J150000D01*
G01*
X80320000Y-77800000D01*
G75*
G02*
X80470000Y-77650000I150000J0D01*
G01*
G37*
%TD.AperFunction*%
%TO.P,U1,11*%
%TO.N,AnalogIn*%
%TA.AperFunction,SMDPad,CuDef*%
G36*
G01*
X79200000Y-77650000D02*
X79500000Y-77650000D01*
G75*
G02*
X79650000Y-77800000I0J-150000D01*
G01*
X79650000Y-79450000D01*
G75*
G02*
X79500000Y-79600000I-150000J0D01*
G01*
X79200000Y-79600000D01*
G75*
G02*
X79050000Y-79450000I0J150000D01*
G01*
X79050000Y-77800000D01*
G75*
G02*
X79200000Y-77650000I150000J0D01*
G01*
G37*
%TD.AperFunction*%
%TO.P,U1,10*%
%TO.N,Net-(R5-Pad2)*%
%TA.AperFunction,SMDPad,CuDef*%
G36*
G01*
X77930000Y-77650000D02*
X78230000Y-77650000D01*
G75*
G02*
X78380000Y-77800000I0J-150000D01*
G01*
X78380000Y-79450000D01*
G75*
G02*
X78230000Y-79600000I-150000J0D01*
G01*
X77930000Y-79600000D01*
G75*
G02*
X77780000Y-79450000I0J150000D01*
G01*
X77780000Y-77800000D01*
G75*
G02*
X77930000Y-77650000I150000J0D01*
G01*
G37*
%TD.AperFunction*%
%TO.P,U1,9*%
%TO.N,Net-(R4-Pad2)*%
%TA.AperFunction,SMDPad,CuDef*%
G36*
G01*
X76660000Y-77650000D02*
X76960000Y-77650000D01*
G75*
G02*
X77110000Y-77800000I0J-150000D01*
G01*
X77110000Y-79450000D01*
G75*
G02*
X76960000Y-79600000I-150000J0D01*
G01*
X76660000Y-79600000D01*
G75*
G02*
X76510000Y-79450000I0J150000D01*
G01*
X76510000Y-77800000D01*
G75*
G02*
X76660000Y-77650000I150000J0D01*
G01*
G37*
%TD.AperFunction*%
%TO.P,U1,8*%
%TO.N,AnalogIn*%
%TA.AperFunction,SMDPad,CuDef*%
G36*
G01*
X75390000Y-77650000D02*
X75690000Y-77650000D01*
G75*
G02*
X75840000Y-77800000I0J-150000D01*
G01*
X75840000Y-79450000D01*
G75*
G02*
X75690000Y-79600000I-150000J0D01*
G01*
X75390000Y-79600000D01*
G75*
G02*
X75240000Y-79450000I0J150000D01*
G01*
X75240000Y-77800000D01*
G75*
G02*
X75390000Y-77650000I150000J0D01*
G01*
G37*
%TD.AperFunction*%
%TO.P,U1,7*%
%TO.N,Net-(R2-Pad2)*%
%TA.AperFunction,SMDPad,CuDef*%
G36*
G01*
X75390000Y-72700000D02*
X75690000Y-72700000D01*
G75*
G02*
X75840000Y-72850000I0J-150000D01*
G01*
X75840000Y-74500000D01*
G75*
G02*
X75690000Y-74650000I-150000J0D01*
G01*
X75390000Y-74650000D01*
G75*
G02*
X75240000Y-74500000I0J150000D01*
G01*
X75240000Y-72850000D01*
G75*
G02*
X75390000Y-72700000I150000J0D01*
G01*
G37*
%TD.AperFunction*%
%TO.P,U1,6*%
%TO.N,Net-(R2-Pad1)*%
%TA.AperFunction,SMDPad,CuDef*%
G36*
G01*
X76660000Y-72700000D02*
X76960000Y-72700000D01*
G75*
G02*
X77110000Y-72850000I0J-150000D01*
G01*
X77110000Y-74500000D01*
G75*
G02*
X76960000Y-74650000I-150000J0D01*
G01*
X76660000Y-74650000D01*
G75*
G02*
X76510000Y-74500000I0J150000D01*
G01*
X76510000Y-72850000D01*
G75*
G02*
X76660000Y-72700000I150000J0D01*
G01*
G37*
%TD.AperFunction*%
%TO.P,U1,5*%
%TO.N,Net-(J1-Pad2)*%
%TA.AperFunction,SMDPad,CuDef*%
G36*
G01*
X77930000Y-72700000D02*
X78230000Y-72700000D01*
G75*
G02*
X78380000Y-72850000I0J-150000D01*
G01*
X78380000Y-74500000D01*
G75*
G02*
X78230000Y-74650000I-150000J0D01*
G01*
X77930000Y-74650000D01*
G75*
G02*
X77780000Y-74500000I0J150000D01*
G01*
X77780000Y-72850000D01*
G75*
G02*
X77930000Y-72700000I150000J0D01*
G01*
G37*
%TD.AperFunction*%
%TO.P,U1,4*%
%TO.N,Vfeather*%
%TA.AperFunction,SMDPad,CuDef*%
G36*
G01*
X79200000Y-72700000D02*
X79500000Y-72700000D01*
G75*
G02*
X79650000Y-72850000I0J-150000D01*
G01*
X79650000Y-74500000D01*
G75*
G02*
X79500000Y-74650000I-150000J0D01*
G01*
X79200000Y-74650000D01*
G75*
G02*
X79050000Y-74500000I0J150000D01*
G01*
X79050000Y-72850000D01*
G75*
G02*
X79200000Y-72700000I150000J0D01*
G01*
G37*
%TD.AperFunction*%
%TO.P,U1,3*%
%TO.N,Net-(J1-Pad1)*%
%TA.AperFunction,SMDPad,CuDef*%
G36*
G01*
X80470000Y-72700000D02*
X80770000Y-72700000D01*
G75*
G02*
X80920000Y-72850000I0J-150000D01*
G01*
X80920000Y-74500000D01*
G75*
G02*
X80770000Y-74650000I-150000J0D01*
G01*
X80470000Y-74650000D01*
G75*
G02*
X80320000Y-74500000I0J150000D01*
G01*
X80320000Y-72850000D01*
G75*
G02*
X80470000Y-72700000I150000J0D01*
G01*
G37*
%TD.AperFunction*%
%TO.P,U1,2*%
%TO.N,Net-(R3-Pad2)*%
%TA.AperFunction,SMDPad,CuDef*%
G36*
G01*
X81740000Y-72700000D02*
X82040000Y-72700000D01*
G75*
G02*
X82190000Y-72850000I0J-150000D01*
G01*
X82190000Y-74500000D01*
G75*
G02*
X82040000Y-74650000I-150000J0D01*
G01*
X81740000Y-74650000D01*
G75*
G02*
X81590000Y-74500000I0J150000D01*
G01*
X81590000Y-72850000D01*
G75*
G02*
X81740000Y-72700000I150000J0D01*
G01*
G37*
%TD.AperFunction*%
%TO.P,U1,1*%
%TO.N,Net-(R3-Pad1)*%
%TA.AperFunction,SMDPad,CuDef*%
G36*
G01*
X83010000Y-72700000D02*
X83310000Y-72700000D01*
G75*
G02*
X83460000Y-72850000I0J-150000D01*
G01*
X83460000Y-74500000D01*
G75*
G02*
X83310000Y-74650000I-150000J0D01*
G01*
X83010000Y-74650000D01*
G75*
G02*
X82860000Y-74500000I0J150000D01*
G01*
X82860000Y-72850000D01*
G75*
G02*
X83010000Y-72700000I150000J0D01*
G01*
G37*
%TD.AperFunction*%
%TD*%
D12*
%TO.P,RV2,1*%
%TO.N,Net-(RV2-Pad1)*%
X71200000Y-56500000D03*
%TO.P,RV2,2*%
%TO.N,Net-(R3-Pad1)*%
X73740000Y-53960000D03*
%TO.P,RV2,3*%
%TO.N,Net-(R2-Pad1)*%
X76280000Y-56500000D03*
%TD*%
%TO.P,RV1,1*%
%TO.N,Net-(R1-Pad1)*%
X83600000Y-56600000D03*
%TO.P,RV1,2*%
%TO.N,AnalogIn*%
X86140000Y-54060000D03*
%TO.P,RV1,3*%
%TO.N,Net-(RV1-Pad3)*%
X88680000Y-56600000D03*
%TD*%
%TO.P,R7,2*%
%TO.N,AnalogIn*%
%TA.AperFunction,SMDPad,CuDef*%
G36*
G01*
X75449999Y-84200000D02*
X76350001Y-84200000D01*
G75*
G02*
X76600000Y-84449999I0J-249999D01*
G01*
X76600000Y-85150001D01*
G75*
G02*
X76350001Y-85400000I-249999J0D01*
G01*
X75449999Y-85400000D01*
G75*
G02*
X75200000Y-85150001I0J249999D01*
G01*
X75200000Y-84449999D01*
G75*
G02*
X75449999Y-84200000I249999J0D01*
G01*
G37*
%TD.AperFunction*%
%TO.P,R7,1*%
%TO.N,Net-(R4-Pad2)*%
%TA.AperFunction,SMDPad,CuDef*%
G36*
G01*
X75449999Y-82200000D02*
X76350001Y-82200000D01*
G75*
G02*
X76600000Y-82449999I0J-249999D01*
G01*
X76600000Y-83150001D01*
G75*
G02*
X76350001Y-83400000I-249999J0D01*
G01*
X75449999Y-83400000D01*
G75*
G02*
X75200000Y-83150001I0J249999D01*
G01*
X75200000Y-82449999D01*
G75*
G02*
X75449999Y-82200000I249999J0D01*
G01*
G37*
%TD.AperFunction*%
%TD*%
%TO.P,R6,2*%
%TO.N,Net-(R5-Pad2)*%
%TA.AperFunction,SMDPad,CuDef*%
G36*
G01*
X78949999Y-84200000D02*
X79850001Y-84200000D01*
G75*
G02*
X80100000Y-84449999I0J-249999D01*
G01*
X80100000Y-85150001D01*
G75*
G02*
X79850001Y-85400000I-249999J0D01*
G01*
X78949999Y-85400000D01*
G75*
G02*
X78700000Y-85150001I0J249999D01*
G01*
X78700000Y-84449999D01*
G75*
G02*
X78949999Y-84200000I249999J0D01*
G01*
G37*
%TD.AperFunction*%
%TO.P,R6,1*%
%TO.N,Net-(R2-Pad2)*%
%TA.AperFunction,SMDPad,CuDef*%
G36*
G01*
X78949999Y-82200000D02*
X79850001Y-82200000D01*
G75*
G02*
X80100000Y-82449999I0J-249999D01*
G01*
X80100000Y-83150001D01*
G75*
G02*
X79850001Y-83400000I-249999J0D01*
G01*
X78949999Y-83400000D01*
G75*
G02*
X78700000Y-83150001I0J249999D01*
G01*
X78700000Y-82449999D01*
G75*
G02*
X78949999Y-82200000I249999J0D01*
G01*
G37*
%TD.AperFunction*%
%TD*%
%TO.P,R5,2*%
%TO.N,Net-(R5-Pad2)*%
%TA.AperFunction,SMDPad,CuDef*%
G36*
G01*
X82324999Y-84200000D02*
X83225001Y-84200000D01*
G75*
G02*
X83475000Y-84449999I0J-249999D01*
G01*
X83475000Y-85150001D01*
G75*
G02*
X83225001Y-85400000I-249999J0D01*
G01*
X82324999Y-85400000D01*
G75*
G02*
X82075000Y-85150001I0J249999D01*
G01*
X82075000Y-84449999D01*
G75*
G02*
X82324999Y-84200000I249999J0D01*
G01*
G37*
%TD.AperFunction*%
%TO.P,R5,1*%
%TO.N,AnalogIn*%
%TA.AperFunction,SMDPad,CuDef*%
G36*
G01*
X82324999Y-82200000D02*
X83225001Y-82200000D01*
G75*
G02*
X83475000Y-82449999I0J-249999D01*
G01*
X83475000Y-83150001D01*
G75*
G02*
X83225001Y-83400000I-249999J0D01*
G01*
X82324999Y-83400000D01*
G75*
G02*
X82075000Y-83150001I0J249999D01*
G01*
X82075000Y-82449999D01*
G75*
G02*
X82324999Y-82200000I249999J0D01*
G01*
G37*
%TD.AperFunction*%
%TD*%
%TO.P,R4,2*%
%TO.N,Net-(R4-Pad2)*%
%TA.AperFunction,SMDPad,CuDef*%
G36*
G01*
X85824999Y-84200000D02*
X86725001Y-84200000D01*
G75*
G02*
X86975000Y-84449999I0J-249999D01*
G01*
X86975000Y-85150001D01*
G75*
G02*
X86725001Y-85400000I-249999J0D01*
G01*
X85824999Y-85400000D01*
G75*
G02*
X85575000Y-85150001I0J249999D01*
G01*
X85575000Y-84449999D01*
G75*
G02*
X85824999Y-84200000I249999J0D01*
G01*
G37*
%TD.AperFunction*%
%TO.P,R4,1*%
%TO.N,Net-(R3-Pad2)*%
%TA.AperFunction,SMDPad,CuDef*%
G36*
G01*
X85824999Y-82200000D02*
X86725001Y-82200000D01*
G75*
G02*
X86975000Y-82449999I0J-249999D01*
G01*
X86975000Y-83150001D01*
G75*
G02*
X86725001Y-83400000I-249999J0D01*
G01*
X85824999Y-83400000D01*
G75*
G02*
X85575000Y-83150001I0J249999D01*
G01*
X85575000Y-82449999D01*
G75*
G02*
X85824999Y-82200000I249999J0D01*
G01*
G37*
%TD.AperFunction*%
%TD*%
%TO.P,R3,1*%
%TO.N,Net-(R3-Pad1)*%
%TA.AperFunction,SMDPad,CuDef*%
G36*
G01*
X88100000Y-68749999D02*
X88100000Y-69650001D01*
G75*
G02*
X87850001Y-69900000I-249999J0D01*
G01*
X87149999Y-69900000D01*
G75*
G02*
X86900000Y-69650001I0J249999D01*
G01*
X86900000Y-68749999D01*
G75*
G02*
X87149999Y-68500000I249999J0D01*
G01*
X87850001Y-68500000D01*
G75*
G02*
X88100000Y-68749999I0J-249999D01*
G01*
G37*
%TD.AperFunction*%
%TO.P,R3,2*%
%TO.N,Net-(R3-Pad2)*%
%TA.AperFunction,SMDPad,CuDef*%
G36*
G01*
X86100000Y-68749999D02*
X86100000Y-69650001D01*
G75*
G02*
X85850001Y-69900000I-249999J0D01*
G01*
X85149999Y-69900000D01*
G75*
G02*
X84900000Y-69650001I0J249999D01*
G01*
X84900000Y-68749999D01*
G75*
G02*
X85149999Y-68500000I249999J0D01*
G01*
X85850001Y-68500000D01*
G75*
G02*
X86100000Y-68749999I0J-249999D01*
G01*
G37*
%TD.AperFunction*%
%TD*%
%TO.P,R2,2*%
%TO.N,Net-(R2-Pad2)*%
%TA.AperFunction,SMDPad,CuDef*%
G36*
G01*
X75249999Y-69600000D02*
X76150001Y-69600000D01*
G75*
G02*
X76400000Y-69849999I0J-249999D01*
G01*
X76400000Y-70550001D01*
G75*
G02*
X76150001Y-70800000I-249999J0D01*
G01*
X75249999Y-70800000D01*
G75*
G02*
X75000000Y-70550001I0J249999D01*
G01*
X75000000Y-69849999D01*
G75*
G02*
X75249999Y-69600000I249999J0D01*
G01*
G37*
%TD.AperFunction*%
%TO.P,R2,1*%
%TO.N,Net-(R2-Pad1)*%
%TA.AperFunction,SMDPad,CuDef*%
G36*
G01*
X75249999Y-67600000D02*
X76150001Y-67600000D01*
G75*
G02*
X76400000Y-67849999I0J-249999D01*
G01*
X76400000Y-68550001D01*
G75*
G02*
X76150001Y-68800000I-249999J0D01*
G01*
X75249999Y-68800000D01*
G75*
G02*
X75000000Y-68550001I0J249999D01*
G01*
X75000000Y-67849999D01*
G75*
G02*
X75249999Y-67600000I249999J0D01*
G01*
G37*
%TD.AperFunction*%
%TD*%
%TO.P,R1,2*%
%TO.N,Net-(J1-Pad1)*%
%TA.AperFunction,SMDPad,CuDef*%
G36*
G01*
X80649999Y-69600000D02*
X81550001Y-69600000D01*
G75*
G02*
X81800000Y-69849999I0J-249999D01*
G01*
X81800000Y-70550001D01*
G75*
G02*
X81550001Y-70800000I-249999J0D01*
G01*
X80649999Y-70800000D01*
G75*
G02*
X80400000Y-70550001I0J249999D01*
G01*
X80400000Y-69849999D01*
G75*
G02*
X80649999Y-69600000I249999J0D01*
G01*
G37*
%TD.AperFunction*%
%TO.P,R1,1*%
%TO.N,Net-(R1-Pad1)*%
%TA.AperFunction,SMDPad,CuDef*%
G36*
G01*
X80649999Y-67600000D02*
X81550001Y-67600000D01*
G75*
G02*
X81800000Y-67849999I0J-249999D01*
G01*
X81800000Y-68550001D01*
G75*
G02*
X81550001Y-68800000I-249999J0D01*
G01*
X80649999Y-68800000D01*
G75*
G02*
X80400000Y-68550001I0J249999D01*
G01*
X80400000Y-67849999D01*
G75*
G02*
X80649999Y-67600000I249999J0D01*
G01*
G37*
%TD.AperFunction*%
%TD*%
D13*
%TO.P,J1,2*%
%TO.N,Net-(J1-Pad2)*%
X85700000Y-61100000D03*
D14*
%TO.P,J1,1*%
%TO.N,Net-(J1-Pad1)*%
X85700000Y-64600000D03*
%TD*%
D15*
%TO.N,AnalogIn*%
X71500000Y-67100000D03*
X79400000Y-76200000D03*
%TD*%
D16*
%TO.N,Vfeather*%
X78426758Y-74975010D02*
X79350000Y-74051768D01*
X77733242Y-74975010D02*
X78426758Y-74975010D01*
X77454990Y-74696758D02*
X77733242Y-74975010D01*
X77454990Y-56128388D02*
X77454990Y-74696758D01*
X76781601Y-55454999D02*
X77454990Y-56128388D01*
X79350000Y-74051768D02*
X79350000Y-73675000D01*
X75585001Y-55454999D02*
X76781601Y-55454999D01*
X69600000Y-61440000D02*
X75585001Y-55454999D01*
X72325000Y-64165000D02*
X69600000Y-61440000D01*
X72325000Y-77625000D02*
X72325000Y-64165000D01*
%TO.N,Net-(J1-Pad2)*%
X85700000Y-61100000D02*
X80400000Y-61100000D01*
X78080000Y-63420000D02*
X78080000Y-73675000D01*
X80400000Y-61100000D02*
X78080000Y-63420000D01*
%TO.N,Net-(J1-Pad1)*%
X80620000Y-72880000D02*
X80620000Y-73675000D01*
X81100000Y-73195000D02*
X80620000Y-73675000D01*
X81100000Y-70200000D02*
X81100000Y-73195000D01*
X85700000Y-65600000D02*
X81100000Y-70200000D01*
X85700000Y-64600000D02*
X85700000Y-65600000D01*
%TO.N,Net-(R1-Pad1)*%
X84239999Y-63074999D02*
X81100000Y-66214998D01*
X81100000Y-66214998D02*
X81100000Y-68200000D01*
X85982003Y-63074999D02*
X84239999Y-63074999D01*
X87225001Y-61832001D02*
X85982003Y-63074999D01*
X87225001Y-60225001D02*
X87225001Y-61832001D01*
X83600000Y-56600000D02*
X87225001Y-60225001D01*
%TO.N,Net-(R2-Pad2)*%
X77454990Y-76564990D02*
X75540000Y-74650000D01*
X77454990Y-81554990D02*
X77454990Y-76564990D01*
X75540000Y-74650000D02*
X75540000Y-73675000D01*
X78700000Y-82800000D02*
X77454990Y-81554990D01*
X79400000Y-82800000D02*
X78700000Y-82800000D01*
X75700000Y-73515000D02*
X75540000Y-73675000D01*
X75700000Y-70200000D02*
X75700000Y-73515000D01*
%TO.N,Net-(R2-Pad1)*%
X76280000Y-67620000D02*
X75700000Y-68200000D01*
X76280000Y-56500000D02*
X76280000Y-67620000D01*
X76810000Y-69310000D02*
X76810000Y-73675000D01*
X75700000Y-68200000D02*
X76810000Y-69310000D01*
%TO.N,Net-(R3-Pad2)*%
X81890000Y-72700000D02*
X81890000Y-73675000D01*
X81890000Y-74650000D02*
X81890000Y-73675000D01*
X86275000Y-82800000D02*
X86660010Y-82414990D01*
X81890000Y-74051768D02*
X81890000Y-73675000D01*
X86275000Y-78436768D02*
X81890000Y-74051768D01*
X86275000Y-82800000D02*
X86275000Y-78436768D01*
X81890000Y-72810000D02*
X81890000Y-73675000D01*
X85500000Y-69200000D02*
X81890000Y-72810000D01*
%TO.N,Net-(R3-Pad1)*%
X73740000Y-53960000D02*
X84493398Y-53960000D01*
X87500000Y-69200000D02*
X87500000Y-68900000D01*
X89725001Y-59191603D02*
X84493398Y-53960000D01*
X89725001Y-66674999D02*
X89725001Y-59191603D01*
X87500000Y-68900000D02*
X89725001Y-66674999D01*
X87500000Y-69335000D02*
X83160000Y-73675000D01*
X87500000Y-69200000D02*
X87500000Y-69335000D01*
%TO.N,Net-(R4-Pad2)*%
X76810000Y-81890000D02*
X76810000Y-78625000D01*
X75900000Y-82800000D02*
X76810000Y-81890000D01*
X75900000Y-82913190D02*
X75900000Y-82800000D01*
X85349990Y-85725010D02*
X78711820Y-85725010D01*
X78711820Y-85725010D02*
X75900000Y-82913190D01*
X86275000Y-84800000D02*
X85349990Y-85725010D01*
%TO.N,Net-(R5-Pad2)*%
X82775000Y-84800000D02*
X79400000Y-84800000D01*
X80425010Y-81346778D02*
X78080000Y-79001768D01*
X78080000Y-79001768D02*
X78080000Y-78625000D01*
X80425010Y-83774990D02*
X80425010Y-81346778D01*
X79400000Y-84800000D02*
X80425010Y-83774990D01*
%TO.N,AnalogIn*%
X79350000Y-78248232D02*
X79350000Y-78625000D01*
X82775000Y-82800000D02*
X82075000Y-82800000D01*
X79350000Y-79375000D02*
X79350000Y-78625000D01*
X82775000Y-82800000D02*
X79350000Y-79375000D01*
X72300000Y-84800000D02*
X75900000Y-84800000D01*
X74874990Y-79290010D02*
X75540000Y-78625000D01*
X74874990Y-83774990D02*
X74874990Y-79290010D01*
X75900000Y-84800000D02*
X74874990Y-83774990D01*
X68474999Y-65394999D02*
X69600000Y-66520000D01*
X73278388Y-52875010D02*
X68474999Y-57678399D01*
X68474999Y-57678399D02*
X68474999Y-65394999D01*
X84955010Y-52875010D02*
X73278388Y-52875010D01*
X86140000Y-54060000D02*
X84955010Y-52875010D01*
X69600000Y-69060000D02*
X70900000Y-70360000D01*
X70900000Y-77788190D02*
X71811810Y-78700000D01*
X70900000Y-70360000D02*
X70900000Y-77788190D01*
X75465000Y-78700000D02*
X75540000Y-78625000D01*
X71811810Y-78700000D02*
X75465000Y-78700000D01*
X69600000Y-66520000D02*
X70920000Y-66520000D01*
X70920000Y-66520000D02*
X71500000Y-67100000D01*
X79400000Y-78575000D02*
X79350000Y-78625000D01*
X79400000Y-76200000D02*
X79400000Y-78575000D01*
X69600000Y-69060000D02*
X69600000Y-66520000D01*
%TO.N,Net-(D1-Pad1)*%
X72325000Y-82775000D02*
X72300000Y-82800000D01*
X72325000Y-79675000D02*
X72325000Y-82775000D01*
%TD*%
M02*
