M48
; DRILL file {KiCad 5.1.7-a382d34a8~88~ubuntu18.04.1} date Tue Dec 29 16:00:10 2020
; FORMAT={-:-/ absolute / metric / decimal}
; #@! TF.CreationDate,2020-12-29T16:00:10+01:00
; #@! TF.GenerationSoftware,Kicad,Pcbnew,5.1.7-a382d34a8~88~ubuntu18.04.1
; #@! TF.FileFunction,Plated,1,2,PTH
FMAT,2
METRIC
T1C0.400
T2C0.800
T3C1.200
%
G90
G05
T1
X71.5Y-67.1
X79.4Y-76.2
T2
X71.2Y-56.5
X73.74Y-53.96
X76.28Y-56.5
X69.6Y-58.9
X69.6Y-61.44
X69.6Y-63.98
X69.6Y-66.52
X69.6Y-69.06
X69.6Y-71.6
X69.6Y-74.14
X69.6Y-76.68
X69.6Y-79.22
X69.6Y-81.76
X69.6Y-84.3
X69.6Y-86.84
X69.6Y-89.38
X69.6Y-91.92
X69.6Y-94.46
X69.6Y-97.0
X89.92Y-69.06
X89.92Y-71.6
X89.92Y-74.14
X89.92Y-76.68
X89.92Y-79.22
X89.92Y-81.76
X89.92Y-84.3
X89.92Y-86.84
X89.92Y-89.38
X89.92Y-91.92
X89.92Y-94.46
X89.92Y-97.0
X83.6Y-56.6
X86.14Y-54.06
X88.68Y-56.6
T3
X85.7Y-61.1
X85.7Y-64.6
T0
M30
