%TF.GenerationSoftware,KiCad,Pcbnew,5.1.7-a382d34a8~88~ubuntu18.04.1*%
%TF.CreationDate,2021-01-04T13:18:22+01:00*%
%TF.ProjectId,wearable_biosonification,77656172-6162-46c6-955f-62696f736f6e,rev?*%
%TF.SameCoordinates,Original*%
%TF.FileFunction,Legend,Top*%
%TF.FilePolarity,Positive*%
%FSLAX46Y46*%
G04 Gerber Fmt 4.6, Leading zero omitted, Abs format (unit mm)*
G04 Created by KiCad (PCBNEW 5.1.7-a382d34a8~88~ubuntu18.04.1) date 2021-01-04 13:18:22*
%MOMM*%
%LPD*%
G01*
G04 APERTURE LIST*
%ADD10C,0.120000*%
%ADD11C,0.150000*%
G04 APERTURE END LIST*
D10*
%TO.C,A1*%
X68220000Y-55090000D02*
X68220000Y-100810000D01*
X91300000Y-55090000D02*
X91300000Y-100810000D01*
X88650000Y-103460000D02*
X70870000Y-103460000D01*
X88650000Y-52440000D02*
X70870000Y-52440000D01*
X67900000Y-59900000D02*
X67900000Y-57900000D01*
X88650000Y-52440000D02*
G75*
G02*
X91300000Y-55090000I0J-2650000D01*
G01*
X68220000Y-55090000D02*
G75*
G02*
X70870000Y-52440000I2650000J0D01*
G01*
X91300000Y-100810000D02*
G75*
G02*
X88650000Y-103460000I-2650000J0D01*
G01*
X70870000Y-103460000D02*
G75*
G02*
X68220000Y-100810000I0J2650000D01*
G01*
%TO.C,R8*%
X71565000Y-84027064D02*
X71565000Y-83572936D01*
X73035000Y-84027064D02*
X73035000Y-83572936D01*
%TO.C,D1*%
X71365000Y-77650000D02*
X71365000Y-80510000D01*
X71365000Y-80510000D02*
X73285000Y-80510000D01*
X73285000Y-80510000D02*
X73285000Y-77650000D01*
%TO.C,U1*%
X74915000Y-76150000D02*
X74915000Y-78100000D01*
X74915000Y-76150000D02*
X74915000Y-74200000D01*
X83785000Y-76150000D02*
X83785000Y-78100000D01*
X83785000Y-76150000D02*
X83785000Y-72700000D01*
%TO.C,RV2*%
X68855000Y-57765000D02*
X68855000Y-52695000D01*
X78625000Y-57765000D02*
X78625000Y-52695000D01*
X68855000Y-52695000D02*
X78625000Y-52695000D01*
X68855000Y-57765000D02*
X78625000Y-57765000D01*
%TO.C,RV1*%
X81255000Y-57865000D02*
X81255000Y-52795000D01*
X91025000Y-57865000D02*
X91025000Y-52795000D01*
X81255000Y-52795000D02*
X91025000Y-52795000D01*
X81255000Y-57865000D02*
X91025000Y-57865000D01*
%TO.C,R7*%
X76635000Y-83572936D02*
X76635000Y-84027064D01*
X75165000Y-83572936D02*
X75165000Y-84027064D01*
%TO.C,R6*%
X80135000Y-83572936D02*
X80135000Y-84027064D01*
X78665000Y-83572936D02*
X78665000Y-84027064D01*
%TO.C,R5*%
X83510000Y-83572936D02*
X83510000Y-84027064D01*
X82040000Y-83572936D02*
X82040000Y-84027064D01*
%TO.C,R4*%
X87010000Y-83572936D02*
X87010000Y-84027064D01*
X85540000Y-83572936D02*
X85540000Y-84027064D01*
%TO.C,R3*%
X86727064Y-68465000D02*
X86272936Y-68465000D01*
X86727064Y-69935000D02*
X86272936Y-69935000D01*
%TO.C,R2*%
X76435000Y-68972936D02*
X76435000Y-69427064D01*
X74965000Y-68972936D02*
X74965000Y-69427064D01*
%TO.C,R1*%
X81835000Y-68972936D02*
X81835000Y-69427064D01*
X80365000Y-68972936D02*
X80365000Y-69427064D01*
%TO.C,J1*%
X87380000Y-61100000D02*
G75*
G03*
X87380000Y-61100000I-1680000J0D01*
G01*
X89800000Y-66410000D02*
X89800000Y-59290000D01*
X88700000Y-66410000D02*
X88700000Y-59290000D01*
X82540000Y-66410000D02*
X82540000Y-59290000D01*
X90260000Y-66410000D02*
X90260000Y-59290000D01*
X82540000Y-66410000D02*
X90260000Y-66410000D01*
X82540000Y-59290000D02*
X90260000Y-59290000D01*
X84631000Y-59825000D02*
X84759000Y-59954000D01*
X86881000Y-62075000D02*
X86974000Y-62169000D01*
X84425000Y-60030000D02*
X84519000Y-60124000D01*
X86641000Y-62245000D02*
X86769000Y-62374000D01*
X89860000Y-66650000D02*
X90500000Y-66650000D01*
X90500000Y-66650000D02*
X90500000Y-66250000D01*
X87380099Y-64571326D02*
G75*
G02*
X87140000Y-65466000I-1680099J-28674D01*
G01*
X86589894Y-66025358D02*
G75*
G02*
X84834000Y-66040000I-889894J1425358D01*
G01*
X84274642Y-65489894D02*
G75*
G02*
X84260000Y-63734000I1425358J889894D01*
G01*
X84809807Y-63174495D02*
G75*
G02*
X86591000Y-63175000I890193J-1425505D01*
G01*
X87124721Y-63709736D02*
G75*
G02*
X87380000Y-64600000I-1424721J-890264D01*
G01*
%TO.C,R8*%
D11*
X74407380Y-83966666D02*
X73931190Y-84300000D01*
X74407380Y-84538095D02*
X73407380Y-84538095D01*
X73407380Y-84157142D01*
X73455000Y-84061904D01*
X73502619Y-84014285D01*
X73597857Y-83966666D01*
X73740714Y-83966666D01*
X73835952Y-84014285D01*
X73883571Y-84061904D01*
X73931190Y-84157142D01*
X73931190Y-84538095D01*
X73835952Y-83395238D02*
X73788333Y-83490476D01*
X73740714Y-83538095D01*
X73645476Y-83585714D01*
X73597857Y-83585714D01*
X73502619Y-83538095D01*
X73455000Y-83490476D01*
X73407380Y-83395238D01*
X73407380Y-83204761D01*
X73455000Y-83109523D01*
X73502619Y-83061904D01*
X73597857Y-83014285D01*
X73645476Y-83014285D01*
X73740714Y-83061904D01*
X73788333Y-83109523D01*
X73835952Y-83204761D01*
X73835952Y-83395238D01*
X73883571Y-83490476D01*
X73931190Y-83538095D01*
X74026428Y-83585714D01*
X74216904Y-83585714D01*
X74312142Y-83538095D01*
X74359761Y-83490476D01*
X74407380Y-83395238D01*
X74407380Y-83204761D01*
X74359761Y-83109523D01*
X74312142Y-83061904D01*
X74216904Y-83014285D01*
X74026428Y-83014285D01*
X73931190Y-83061904D01*
X73883571Y-83109523D01*
X73835952Y-83204761D01*
%TO.C,D1*%
X74477380Y-79388095D02*
X73477380Y-79388095D01*
X73477380Y-79150000D01*
X73525000Y-79007142D01*
X73620238Y-78911904D01*
X73715476Y-78864285D01*
X73905952Y-78816666D01*
X74048809Y-78816666D01*
X74239285Y-78864285D01*
X74334523Y-78911904D01*
X74429761Y-79007142D01*
X74477380Y-79150000D01*
X74477380Y-79388095D01*
X74477380Y-77864285D02*
X74477380Y-78435714D01*
X74477380Y-78150000D02*
X73477380Y-78150000D01*
X73620238Y-78245238D01*
X73715476Y-78340476D01*
X73763095Y-78435714D01*
%TO.C,U1*%
X84082380Y-76911904D02*
X84891904Y-76911904D01*
X84987142Y-76864285D01*
X85034761Y-76816666D01*
X85082380Y-76721428D01*
X85082380Y-76530952D01*
X85034761Y-76435714D01*
X84987142Y-76388095D01*
X84891904Y-76340476D01*
X84082380Y-76340476D01*
X85082380Y-75340476D02*
X85082380Y-75911904D01*
X85082380Y-75626190D02*
X84082380Y-75626190D01*
X84225238Y-75721428D01*
X84320476Y-75816666D01*
X84368095Y-75911904D01*
%TO.C,RV2*%
X73104761Y-58852380D02*
X72771428Y-58376190D01*
X72533333Y-58852380D02*
X72533333Y-57852380D01*
X72914285Y-57852380D01*
X73009523Y-57900000D01*
X73057142Y-57947619D01*
X73104761Y-58042857D01*
X73104761Y-58185714D01*
X73057142Y-58280952D01*
X73009523Y-58328571D01*
X72914285Y-58376190D01*
X72533333Y-58376190D01*
X73390476Y-57852380D02*
X73723809Y-58852380D01*
X74057142Y-57852380D01*
X74342857Y-57947619D02*
X74390476Y-57900000D01*
X74485714Y-57852380D01*
X74723809Y-57852380D01*
X74819047Y-57900000D01*
X74866666Y-57947619D01*
X74914285Y-58042857D01*
X74914285Y-58138095D01*
X74866666Y-58280952D01*
X74295238Y-58852380D01*
X74914285Y-58852380D01*
%TO.C,RV1*%
X80852380Y-55995238D02*
X80376190Y-56328571D01*
X80852380Y-56566666D02*
X79852380Y-56566666D01*
X79852380Y-56185714D01*
X79900000Y-56090476D01*
X79947619Y-56042857D01*
X80042857Y-55995238D01*
X80185714Y-55995238D01*
X80280952Y-56042857D01*
X80328571Y-56090476D01*
X80376190Y-56185714D01*
X80376190Y-56566666D01*
X79852380Y-55709523D02*
X80852380Y-55376190D01*
X79852380Y-55042857D01*
X80852380Y-54185714D02*
X80852380Y-54757142D01*
X80852380Y-54471428D02*
X79852380Y-54471428D01*
X79995238Y-54566666D01*
X80090476Y-54661904D01*
X80138095Y-54757142D01*
%TO.C,R7*%
X78002380Y-83966666D02*
X77526190Y-84300000D01*
X78002380Y-84538095D02*
X77002380Y-84538095D01*
X77002380Y-84157142D01*
X77050000Y-84061904D01*
X77097619Y-84014285D01*
X77192857Y-83966666D01*
X77335714Y-83966666D01*
X77430952Y-84014285D01*
X77478571Y-84061904D01*
X77526190Y-84157142D01*
X77526190Y-84538095D01*
X77002380Y-83633333D02*
X77002380Y-82966666D01*
X78002380Y-83395238D01*
%TO.C,R6*%
X81502380Y-83966666D02*
X81026190Y-84300000D01*
X81502380Y-84538095D02*
X80502380Y-84538095D01*
X80502380Y-84157142D01*
X80550000Y-84061904D01*
X80597619Y-84014285D01*
X80692857Y-83966666D01*
X80835714Y-83966666D01*
X80930952Y-84014285D01*
X80978571Y-84061904D01*
X81026190Y-84157142D01*
X81026190Y-84538095D01*
X80502380Y-83109523D02*
X80502380Y-83300000D01*
X80550000Y-83395238D01*
X80597619Y-83442857D01*
X80740476Y-83538095D01*
X80930952Y-83585714D01*
X81311904Y-83585714D01*
X81407142Y-83538095D01*
X81454761Y-83490476D01*
X81502380Y-83395238D01*
X81502380Y-83204761D01*
X81454761Y-83109523D01*
X81407142Y-83061904D01*
X81311904Y-83014285D01*
X81073809Y-83014285D01*
X80978571Y-83061904D01*
X80930952Y-83109523D01*
X80883333Y-83204761D01*
X80883333Y-83395238D01*
X80930952Y-83490476D01*
X80978571Y-83538095D01*
X81073809Y-83585714D01*
%TO.C,R5*%
X84877380Y-83966666D02*
X84401190Y-84300000D01*
X84877380Y-84538095D02*
X83877380Y-84538095D01*
X83877380Y-84157142D01*
X83925000Y-84061904D01*
X83972619Y-84014285D01*
X84067857Y-83966666D01*
X84210714Y-83966666D01*
X84305952Y-84014285D01*
X84353571Y-84061904D01*
X84401190Y-84157142D01*
X84401190Y-84538095D01*
X83877380Y-83061904D02*
X83877380Y-83538095D01*
X84353571Y-83585714D01*
X84305952Y-83538095D01*
X84258333Y-83442857D01*
X84258333Y-83204761D01*
X84305952Y-83109523D01*
X84353571Y-83061904D01*
X84448809Y-83014285D01*
X84686904Y-83014285D01*
X84782142Y-83061904D01*
X84829761Y-83109523D01*
X84877380Y-83204761D01*
X84877380Y-83442857D01*
X84829761Y-83538095D01*
X84782142Y-83585714D01*
%TO.C,R4*%
X88377380Y-83966666D02*
X87901190Y-84300000D01*
X88377380Y-84538095D02*
X87377380Y-84538095D01*
X87377380Y-84157142D01*
X87425000Y-84061904D01*
X87472619Y-84014285D01*
X87567857Y-83966666D01*
X87710714Y-83966666D01*
X87805952Y-84014285D01*
X87853571Y-84061904D01*
X87901190Y-84157142D01*
X87901190Y-84538095D01*
X87710714Y-83109523D02*
X88377380Y-83109523D01*
X87329761Y-83347619D02*
X88044047Y-83585714D01*
X88044047Y-82966666D01*
%TO.C,R3*%
X86333333Y-71302380D02*
X86000000Y-70826190D01*
X85761904Y-71302380D02*
X85761904Y-70302380D01*
X86142857Y-70302380D01*
X86238095Y-70350000D01*
X86285714Y-70397619D01*
X86333333Y-70492857D01*
X86333333Y-70635714D01*
X86285714Y-70730952D01*
X86238095Y-70778571D01*
X86142857Y-70826190D01*
X85761904Y-70826190D01*
X86666666Y-70302380D02*
X87285714Y-70302380D01*
X86952380Y-70683333D01*
X87095238Y-70683333D01*
X87190476Y-70730952D01*
X87238095Y-70778571D01*
X87285714Y-70873809D01*
X87285714Y-71111904D01*
X87238095Y-71207142D01*
X87190476Y-71254761D01*
X87095238Y-71302380D01*
X86809523Y-71302380D01*
X86714285Y-71254761D01*
X86666666Y-71207142D01*
%TO.C,R2*%
X77802380Y-69366666D02*
X77326190Y-69700000D01*
X77802380Y-69938095D02*
X76802380Y-69938095D01*
X76802380Y-69557142D01*
X76850000Y-69461904D01*
X76897619Y-69414285D01*
X76992857Y-69366666D01*
X77135714Y-69366666D01*
X77230952Y-69414285D01*
X77278571Y-69461904D01*
X77326190Y-69557142D01*
X77326190Y-69938095D01*
X76897619Y-68985714D02*
X76850000Y-68938095D01*
X76802380Y-68842857D01*
X76802380Y-68604761D01*
X76850000Y-68509523D01*
X76897619Y-68461904D01*
X76992857Y-68414285D01*
X77088095Y-68414285D01*
X77230952Y-68461904D01*
X77802380Y-69033333D01*
X77802380Y-68414285D01*
%TO.C,R1*%
X83202380Y-69366666D02*
X82726190Y-69700000D01*
X83202380Y-69938095D02*
X82202380Y-69938095D01*
X82202380Y-69557142D01*
X82250000Y-69461904D01*
X82297619Y-69414285D01*
X82392857Y-69366666D01*
X82535714Y-69366666D01*
X82630952Y-69414285D01*
X82678571Y-69461904D01*
X82726190Y-69557142D01*
X82726190Y-69938095D01*
X83202380Y-68414285D02*
X83202380Y-68985714D01*
X83202380Y-68700000D02*
X82202380Y-68700000D01*
X82345238Y-68795238D01*
X82440476Y-68890476D01*
X82488095Y-68985714D01*
%TO.C,J1*%
X81066666Y-61852380D02*
X81066666Y-62566666D01*
X81019047Y-62709523D01*
X80923809Y-62804761D01*
X80780952Y-62852380D01*
X80685714Y-62852380D01*
X82066666Y-62852380D02*
X81495238Y-62852380D01*
X81780952Y-62852380D02*
X81780952Y-61852380D01*
X81685714Y-61995238D01*
X81590476Y-62090476D01*
X81495238Y-62138095D01*
%TD*%
M02*
